<svg id="Lag_1" data-name="Lag 1" xmlns="http://www.w3.org/2000/svg" viewBox="0 0 461.11 220.3"><defs><style>.cls-1{fill:#1a3154;}</style></defs><title>conscia-swirl-marine</title><path class="cls-1" d="M84.24,159.67C108,197.85,167,230.74,238.16,249a55.46,55.46,0,0,1-10.4-8.94c-42-13.8-74.88-32.89-90.26-54.82C106.71,140.18,163.69,101.2,264.36,98c101.09-2.84,208.83,31.27,240,76.34,17.05,25.18,7.07,48.74-22.88,65l-1.25,4.87c49.09-21.52,68.63-57.26,44.51-96.65C486.92,86.58,357.55,39.06,236.08,42.72,115,46,46.81,98.76,84.24,159.67Z" transform="translate(-73.98 -42.52)"/><path class="cls-1" d="M261,223.43c11.64,17.47,39.93,32.08,73.21,39.39a5.6,5.6,0,0,1-.83-2.43c-22.05-5.69-39.93-15-47.84-26-14.56-19.9,10.82-38.18,56.16-40.61s94.42,12.18,109,32.08c9.15,12.59,2.09,24.37-15.38,32.08v1.63c25.79-9.75,36.6-27.21,24.12-45.89-17.47-27.21-76.54-47.11-131-44.67C273.93,171.86,243.57,196.22,261,223.43Z" transform="translate(-73.98 -42.52)"/></svg>