<svg width="400" height="400" viewBox="0 0 48 48" fill="none" xmlns="http://www.w3.org/2000/svg">
<path d="M16.7252 36.542C16.9132 36.848 16.5812 37.304 16.2522 37.158C10.1022 34.442 5.08321 29.988 2.97921 24.875C-0.592788 16.1 5.91721 8.49704 17.4702 8.02804C29.0602 7.50204 41.4052 14.346 45.0172 23.121C47.2202 28.552 45.6062 33.501 41.3542 36.634C41.1362 36.794 40.8442 36.607 40.8882 36.34C40.9042 36.247 40.8732 36.434 40.8882 36.34C43.7472 34 43.6282 30.138 42.0012 26.51C39.0242 20.018 29.6472 16.405 20.0012 16.815C10.3952 17.283 6.06321 21.781 9.00121 28.274C10.4592 31.409 12.6332 34.424 16.5852 36.412C16.643 36.4416 16.6915 36.4866 16.7252 36.542Z" fill="url(#paint0_linear_156_4436)"/>
<path d="M26.6256 39.742C26.6426 39.85 26.5516 39.952 26.4476 39.918C23.1676 38.828 19.5856 36.318 18.4446 33.888C16.6876 30.007 20.3416 26.437 25.8206 26.031C31.3006 25.684 37.7626 28.261 39.5196 32.143C40.7296 34.715 39.5476 37.913 37.1326 39.384C37.1056 39.4 37.0747 39.4085 37.0433 39.4086C37.0118 39.4087 36.9809 39.4004 36.9537 39.3847C36.9265 39.3689 36.9041 39.3461 36.8886 39.3188C36.8731 39.2914 36.8652 39.2604 36.8656 39.229C36.8656 39.166 36.8986 39.106 36.9516 39.072C38.6456 37.976 39.3176 36.495 38.4126 34.728C36.9486 31.889 32.0126 29.803 27.4546 30.151C22.8946 30.499 20.3436 33.106 21.8066 35.944C22.5916 37.489 24.3536 38.807 26.5316 39.621C26.5836 39.641 26.6166 39.687 26.6256 39.742Z" fill="url(#paint1_linear_156_4436)"/>
<path d="M31 40C32.6569 40 34 38.6569 34 37C34 35.3431 32.6569 34 31 34C29.3431 34 28 35.3431 28 37C28 38.6569 29.3431 40 31 40Z" fill="url(#paint2_linear_156_4436)"/>
<defs>
<linearGradient id="paint0_linear_156_4436" x1="41.9706" y1="46.6717" x2="4.04455" y2="39.2827" gradientUnits="userSpaceOnUse">
<stop offset="0.171272" stop-color="#05419B"/>
<stop offset="0.624405" stop-color="#055FBC"/>
<stop offset="1" stop-color="#048BEC"/>
</linearGradient>
<linearGradient id="paint1_linear_156_4436" x1="37.9842" y1="44.4502" x2="19.0901" y2="40.5927" gradientUnits="userSpaceOnUse">
<stop offset="0.171272" stop-color="#05419B"/>
<stop offset="0.624405" stop-color="#055FBC"/>
<stop offset="1" stop-color="#048BEC"/>
</linearGradient>
<linearGradient id="paint2_linear_156_4436" x1="33.4504" y1="41.95" x2="28.1707" y2="41.2677" gradientUnits="userSpaceOnUse">
<stop offset="0.171272" stop-color="#05419B"/>
<stop offset="0.624405" stop-color="#055FBC"/>
<stop offset="1" stop-color="#048BEC"/>
</linearGradient>
</defs>
</svg>
